<mxfile host="app.diagrams.net" agent="Mozilla/5.0 (Macintosh; Intel Mac OS X 10_15_7) AppleWebKit/537.36 (KHTML, like Gecko) Chrome/129.0.0.0 Safari/537.36" version="24.8.0">
  <diagram name="Page-1" id="I1pgDbOTt3zeoDY0_0fV">
    <mxGraphModel grid="1" page="1" gridSize="10" guides="1" tooltips="1" connect="1" arrows="1" fold="1" pageScale="1" pageWidth="850" pageHeight="1100" math="0" shadow="0">
      <root>
        <mxCell id="0" />
        <mxCell id="1" parent="0" />
        <mxCell id="WqK_vdZ7HnOktPKJ3eLL-2" value="Project" style="swimlane;fontStyle=0;childLayout=stackLayout;horizontal=1;startSize=30;horizontalStack=0;resizeParent=1;resizeParentMax=0;resizeLast=0;collapsible=1;marginBottom=0;whiteSpace=wrap;html=1;" vertex="1" parent="1">
          <mxGeometry x="60" y="40" width="300" height="360" as="geometry" />
        </mxCell>
        <mxCell id="WqK_vdZ7HnOktPKJ3eLL-3" value="- name: String" style="text;strokeColor=none;fillColor=none;align=left;verticalAlign=middle;spacingLeft=4;spacingRight=4;overflow=hidden;points=[[0,0.5],[1,0.5]];portConstraint=eastwest;rotatable=0;whiteSpace=wrap;html=1;" vertex="1" parent="WqK_vdZ7HnOktPKJ3eLL-2">
          <mxGeometry y="30" width="300" height="30" as="geometry" />
        </mxCell>
        <mxCell id="WqK_vdZ7HnOktPKJ3eLL-4" value="- description: String" style="text;strokeColor=none;fillColor=none;align=left;verticalAlign=middle;spacingLeft=4;spacingRight=4;overflow=hidden;points=[[0,0.5],[1,0.5]];portConstraint=eastwest;rotatable=0;whiteSpace=wrap;html=1;" vertex="1" parent="WqK_vdZ7HnOktPKJ3eLL-2">
          <mxGeometry y="60" width="300" height="30" as="geometry" />
        </mxCell>
        <mxCell id="WqK_vdZ7HnOktPKJ3eLL-5" value="- startDate: int" style="text;strokeColor=none;fillColor=none;align=left;verticalAlign=middle;spacingLeft=4;spacingRight=4;overflow=hidden;points=[[0,0.5],[1,0.5]];portConstraint=eastwest;rotatable=0;whiteSpace=wrap;html=1;" vertex="1" parent="WqK_vdZ7HnOktPKJ3eLL-2">
          <mxGeometry y="90" width="300" height="30" as="geometry" />
        </mxCell>
        <mxCell id="LXnhh3mfrqFDw1orOlzL-1" value="- endDate: int" style="text;strokeColor=none;fillColor=none;align=left;verticalAlign=middle;spacingLeft=4;spacingRight=4;overflow=hidden;points=[[0,0.5],[1,0.5]];portConstraint=eastwest;rotatable=0;whiteSpace=wrap;html=1;" vertex="1" parent="WqK_vdZ7HnOktPKJ3eLL-2">
          <mxGeometry y="120" width="300" height="30" as="geometry" />
        </mxCell>
        <mxCell id="LXnhh3mfrqFDw1orOlzL-11" value="- projectTasks: ArrayList&amp;lt;Task&amp;gt;" style="text;strokeColor=none;fillColor=none;align=left;verticalAlign=middle;spacingLeft=4;spacingRight=4;overflow=hidden;points=[[0,0.5],[1,0.5]];portConstraint=eastwest;rotatable=0;whiteSpace=wrap;html=1;" vertex="1" parent="WqK_vdZ7HnOktPKJ3eLL-2">
          <mxGeometry y="150" width="300" height="30" as="geometry" />
        </mxCell>
        <mxCell id="LXnhh3mfrqFDw1orOlzL-12" value="- projectMembers: ArrayList&amp;lt;TeamMember&amp;gt;" style="text;strokeColor=none;fillColor=none;align=left;verticalAlign=middle;spacingLeft=4;spacingRight=4;overflow=hidden;points=[[0,0.5],[1,0.5]];portConstraint=eastwest;rotatable=0;whiteSpace=wrap;html=1;" vertex="1" parent="WqK_vdZ7HnOktPKJ3eLL-2">
          <mxGeometry y="180" width="300" height="30" as="geometry" />
        </mxCell>
        <mxCell id="LXnhh3mfrqFDw1orOlzL-25" value="" style="endArrow=none;html=1;rounded=0;exitX=0.001;exitY=-0.01;exitDx=0;exitDy=0;exitPerimeter=0;entryX=0.999;entryY=-0.003;entryDx=0;entryDy=0;entryPerimeter=0;" edge="1" parent="WqK_vdZ7HnOktPKJ3eLL-2">
          <mxGeometry width="50" height="50" relative="1" as="geometry">
            <mxPoint x="1.819100425848319e-13" y="209.22999999999993" as="sourcePoint" />
            <mxPoint x="299.40000000000003" y="209.44000000000008" as="targetPoint" />
          </mxGeometry>
        </mxCell>
        <mxCell id="LXnhh3mfrqFDw1orOlzL-2" value="+ addTeamMember(member: TeamMember): void" style="text;strokeColor=none;fillColor=none;align=left;verticalAlign=middle;spacingLeft=4;spacingRight=4;overflow=hidden;points=[[0,0.5],[1,0.5]];portConstraint=eastwest;rotatable=0;whiteSpace=wrap;html=1;" vertex="1" parent="WqK_vdZ7HnOktPKJ3eLL-2">
          <mxGeometry y="210" width="300" height="30" as="geometry" />
        </mxCell>
        <mxCell id="LXnhh3mfrqFDw1orOlzL-3" value="+ removeTeamMember(member: TeamMember): void" style="text;strokeColor=none;fillColor=none;align=left;verticalAlign=middle;spacingLeft=4;spacingRight=4;overflow=hidden;points=[[0,0.5],[1,0.5]];portConstraint=eastwest;rotatable=0;whiteSpace=wrap;html=1;" vertex="1" parent="WqK_vdZ7HnOktPKJ3eLL-2">
          <mxGeometry y="240" width="300" height="30" as="geometry" />
        </mxCell>
        <mxCell id="LXnhh3mfrqFDw1orOlzL-8" value="+ addTask(task: Task): void" style="text;strokeColor=none;fillColor=none;align=left;verticalAlign=middle;spacingLeft=4;spacingRight=4;overflow=hidden;points=[[0,0.5],[1,0.5]];portConstraint=eastwest;rotatable=0;whiteSpace=wrap;html=1;" vertex="1" parent="WqK_vdZ7HnOktPKJ3eLL-2">
          <mxGeometry y="270" width="300" height="30" as="geometry" />
        </mxCell>
        <mxCell id="LXnhh3mfrqFDw1orOlzL-9" value="+ removeTask(task: Task): void" style="text;strokeColor=none;fillColor=none;align=left;verticalAlign=middle;spacingLeft=4;spacingRight=4;overflow=hidden;points=[[0,0.5],[1,0.5]];portConstraint=eastwest;rotatable=0;whiteSpace=wrap;html=1;" vertex="1" parent="WqK_vdZ7HnOktPKJ3eLL-2">
          <mxGeometry y="300" width="300" height="30" as="geometry" />
        </mxCell>
        <mxCell id="ehFr7QhovKkDBZNocTqd-1" value="+ nextDay(): void" style="text;strokeColor=none;fillColor=none;align=left;verticalAlign=middle;spacingLeft=4;spacingRight=4;overflow=hidden;points=[[0,0.5],[1,0.5]];portConstraint=eastwest;rotatable=0;whiteSpace=wrap;html=1;" vertex="1" parent="WqK_vdZ7HnOktPKJ3eLL-2">
          <mxGeometry y="330" width="300" height="30" as="geometry" />
        </mxCell>
        <mxCell id="WqK_vdZ7HnOktPKJ3eLL-6" value="&lt;div&gt;&amp;lt;&amp;lt;abstract&amp;gt;&amp;gt;&lt;/div&gt;Task" style="swimlane;fontStyle=0;childLayout=stackLayout;horizontal=1;startSize=30;horizontalStack=0;resizeParent=1;resizeParentMax=0;resizeLast=0;collapsible=1;marginBottom=0;whiteSpace=wrap;html=1;" vertex="1" parent="1">
          <mxGeometry x="870" y="40" width="140" height="210" as="geometry" />
        </mxCell>
        <mxCell id="WqK_vdZ7HnOktPKJ3eLL-7" value="- title: String" style="text;strokeColor=none;fillColor=none;align=left;verticalAlign=middle;spacingLeft=4;spacingRight=4;overflow=hidden;points=[[0,0.5],[1,0.5]];portConstraint=eastwest;rotatable=0;whiteSpace=wrap;html=1;" vertex="1" parent="WqK_vdZ7HnOktPKJ3eLL-6">
          <mxGeometry y="30" width="140" height="30" as="geometry" />
        </mxCell>
        <mxCell id="WqK_vdZ7HnOktPKJ3eLL-8" value="- description: String" style="text;strokeColor=none;fillColor=none;align=left;verticalAlign=middle;spacingLeft=4;spacingRight=4;overflow=hidden;points=[[0,0.5],[1,0.5]];portConstraint=eastwest;rotatable=0;whiteSpace=wrap;html=1;" vertex="1" parent="WqK_vdZ7HnOktPKJ3eLL-6">
          <mxGeometry y="60" width="140" height="30" as="geometry" />
        </mxCell>
        <mxCell id="WqK_vdZ7HnOktPKJ3eLL-9" value="- status: String" style="text;strokeColor=none;fillColor=none;align=left;verticalAlign=middle;spacingLeft=4;spacingRight=4;overflow=hidden;points=[[0,0.5],[1,0.5]];portConstraint=eastwest;rotatable=0;whiteSpace=wrap;html=1;" vertex="1" parent="WqK_vdZ7HnOktPKJ3eLL-6">
          <mxGeometry y="90" width="140" height="30" as="geometry" />
        </mxCell>
        <mxCell id="LXnhh3mfrqFDw1orOlzL-7" value="- priority: String" style="text;strokeColor=none;fillColor=none;align=left;verticalAlign=middle;spacingLeft=4;spacingRight=4;overflow=hidden;points=[[0,0.5],[1,0.5]];portConstraint=eastwest;rotatable=0;whiteSpace=wrap;html=1;" vertex="1" parent="WqK_vdZ7HnOktPKJ3eLL-6">
          <mxGeometry y="120" width="140" height="30" as="geometry" />
        </mxCell>
        <mxCell id="ehFr7QhovKkDBZNocTqd-2" value="- dueDate: int" style="text;strokeColor=none;fillColor=none;align=left;verticalAlign=middle;spacingLeft=4;spacingRight=4;overflow=hidden;points=[[0,0.5],[1,0.5]];portConstraint=eastwest;rotatable=0;whiteSpace=wrap;html=1;" vertex="1" parent="WqK_vdZ7HnOktPKJ3eLL-6">
          <mxGeometry y="150" width="140" height="30" as="geometry" />
        </mxCell>
        <mxCell id="ehFr7QhovKkDBZNocTqd-9" value="+ nextDay(): abstract void" style="text;strokeColor=none;fillColor=none;align=left;verticalAlign=middle;spacingLeft=4;spacingRight=4;overflow=hidden;points=[[0,0.5],[1,0.5]];portConstraint=eastwest;rotatable=0;whiteSpace=wrap;html=1;" vertex="1" parent="WqK_vdZ7HnOktPKJ3eLL-6">
          <mxGeometry y="180" width="140" height="30" as="geometry" />
        </mxCell>
        <mxCell id="WqK_vdZ7HnOktPKJ3eLL-10" value="&lt;div&gt;&amp;lt;&amp;lt;abstract&amp;gt;&amp;gt;&lt;/div&gt;TeamMember" style="swimlane;fontStyle=0;childLayout=stackLayout;horizontal=1;startSize=30;horizontalStack=0;resizeParent=1;resizeParentMax=0;resizeLast=0;collapsible=1;marginBottom=0;whiteSpace=wrap;html=1;" vertex="1" parent="1">
          <mxGeometry x="390" y="490" width="260" height="180" as="geometry" />
        </mxCell>
        <mxCell id="WqK_vdZ7HnOktPKJ3eLL-11" value="- name: String" style="text;strokeColor=none;fillColor=none;align=left;verticalAlign=middle;spacingLeft=4;spacingRight=4;overflow=hidden;points=[[0,0.5],[1,0.5]];portConstraint=eastwest;rotatable=0;whiteSpace=wrap;html=1;" vertex="1" parent="WqK_vdZ7HnOktPKJ3eLL-10">
          <mxGeometry y="30" width="260" height="30" as="geometry" />
        </mxCell>
        <mxCell id="WqK_vdZ7HnOktPKJ3eLL-12" value="- emailAddress: String" style="text;strokeColor=none;fillColor=none;align=left;verticalAlign=middle;spacingLeft=4;spacingRight=4;overflow=hidden;points=[[0,0.5],[1,0.5]];portConstraint=eastwest;rotatable=0;whiteSpace=wrap;html=1;" vertex="1" parent="WqK_vdZ7HnOktPKJ3eLL-10">
          <mxGeometry y="60" width="260" height="30" as="geometry" />
        </mxCell>
        <mxCell id="LXnhh3mfrqFDw1orOlzL-26" value="" style="endArrow=none;html=1;rounded=0;exitX=0.001;exitY=-0.01;exitDx=0;exitDy=0;exitPerimeter=0;entryX=0.999;entryY=0.013;entryDx=0;entryDy=0;entryPerimeter=0;" edge="1" parent="WqK_vdZ7HnOktPKJ3eLL-10" target="D3KXRA7UlALcsXDhT-Ta-4">
          <mxGeometry width="50" height="50" relative="1" as="geometry">
            <mxPoint x="1.7053025658242404e-13" y="90.2299999999999" as="sourcePoint" />
            <mxPoint x="299.4000000000001" y="90.44000000000005" as="targetPoint" />
            <Array as="points">
              <mxPoint x="150" y="90" />
            </Array>
          </mxGeometry>
        </mxCell>
        <mxCell id="D3KXRA7UlALcsXDhT-Ta-4" value="+ joinProject(Project: project): void" style="text;strokeColor=none;fillColor=none;align=left;verticalAlign=middle;spacingLeft=4;spacingRight=4;overflow=hidden;points=[[0,0.5],[1,0.5]];portConstraint=eastwest;rotatable=0;whiteSpace=wrap;html=1;" vertex="1" parent="WqK_vdZ7HnOktPKJ3eLL-10">
          <mxGeometry y="90" width="260" height="30" as="geometry" />
        </mxCell>
        <mxCell id="D3KXRA7UlALcsXDhT-Ta-6" value="+ leaveProject(Project: project): void" style="text;strokeColor=none;fillColor=none;align=left;verticalAlign=middle;spacingLeft=4;spacingRight=4;overflow=hidden;points=[[0,0.5],[1,0.5]];portConstraint=eastwest;rotatable=0;whiteSpace=wrap;html=1;" vertex="1" parent="WqK_vdZ7HnOktPKJ3eLL-10">
          <mxGeometry y="120" width="260" height="30" as="geometry" />
        </mxCell>
        <mxCell id="WqK_vdZ7HnOktPKJ3eLL-27" value="+ performResponsibility(): abstract void" style="text;strokeColor=none;fillColor=none;align=left;verticalAlign=middle;spacingLeft=4;spacingRight=4;overflow=hidden;points=[[0,0.5],[1,0.5]];portConstraint=eastwest;rotatable=0;whiteSpace=wrap;html=1;" vertex="1" parent="WqK_vdZ7HnOktPKJ3eLL-10">
          <mxGeometry y="150" width="260" height="30" as="geometry" />
        </mxCell>
        <mxCell id="WqK_vdZ7HnOktPKJ3eLL-15" style="edgeStyle=orthogonalEdgeStyle;rounded=0;orthogonalLoop=1;jettySize=auto;html=1;exitX=1;exitY=0.5;exitDx=0;exitDy=0;entryX=0;entryY=0.5;entryDx=0;entryDy=0;" edge="1" parent="1" source="WqK_vdZ7HnOktPKJ3eLL-3" target="WqK_vdZ7HnOktPKJ3eLL-7">
          <mxGeometry relative="1" as="geometry" />
        </mxCell>
        <mxCell id="D3KXRA7UlALcsXDhT-Ta-14" style="edgeStyle=orthogonalEdgeStyle;rounded=0;orthogonalLoop=1;jettySize=auto;html=1;entryX=0;entryY=0.5;entryDx=0;entryDy=0;endArrow=block;endFill=0;" edge="1" parent="1" source="D3KXRA7UlALcsXDhT-Ta-8" target="D3KXRA7UlALcsXDhT-Ta-4">
          <mxGeometry relative="1" as="geometry" />
        </mxCell>
        <mxCell id="D3KXRA7UlALcsXDhT-Ta-8" value="BasicMember" style="swimlane;fontStyle=0;childLayout=stackLayout;horizontal=1;startSize=30;horizontalStack=0;resizeParent=1;resizeParentMax=0;resizeLast=0;collapsible=1;marginBottom=0;whiteSpace=wrap;html=1;" vertex="1" parent="1">
          <mxGeometry x="100" y="720" width="260" height="60" as="geometry" />
        </mxCell>
        <mxCell id="D3KXRA7UlALcsXDhT-Ta-13" value="+ performResponsibility(): void" style="text;strokeColor=none;fillColor=none;align=left;verticalAlign=middle;spacingLeft=4;spacingRight=4;overflow=hidden;points=[[0,0.5],[1,0.5]];portConstraint=eastwest;rotatable=0;whiteSpace=wrap;html=1;" vertex="1" parent="D3KXRA7UlALcsXDhT-Ta-8">
          <mxGeometry y="30" width="260" height="30" as="geometry" />
        </mxCell>
        <mxCell id="D3KXRA7UlALcsXDhT-Ta-15" value="is a" style="text;html=1;align=center;verticalAlign=middle;resizable=0;points=[];autosize=1;strokeColor=none;fillColor=none;" vertex="1" parent="1">
          <mxGeometry x="260" y="565" width="40" height="30" as="geometry" />
        </mxCell>
        <mxCell id="D3KXRA7UlALcsXDhT-Ta-16" value="TeamLeader" style="swimlane;fontStyle=0;childLayout=stackLayout;horizontal=1;startSize=30;horizontalStack=0;resizeParent=1;resizeParentMax=0;resizeLast=0;collapsible=1;marginBottom=0;whiteSpace=wrap;html=1;" vertex="1" parent="1">
          <mxGeometry x="700" y="720" width="260" height="60" as="geometry" />
        </mxCell>
        <mxCell id="D3KXRA7UlALcsXDhT-Ta-17" value="+ performResponsibility(): void" style="text;strokeColor=none;fillColor=none;align=left;verticalAlign=middle;spacingLeft=4;spacingRight=4;overflow=hidden;points=[[0,0.5],[1,0.5]];portConstraint=eastwest;rotatable=0;whiteSpace=wrap;html=1;" vertex="1" parent="D3KXRA7UlALcsXDhT-Ta-16">
          <mxGeometry y="30" width="260" height="30" as="geometry" />
        </mxCell>
        <mxCell id="D3KXRA7UlALcsXDhT-Ta-20" value="has" style="text;html=1;align=center;verticalAlign=middle;resizable=0;points=[];autosize=1;strokeColor=none;fillColor=none;" vertex="1" parent="1">
          <mxGeometry x="490" y="58" width="40" height="30" as="geometry" />
        </mxCell>
        <mxCell id="D3KXRA7UlALcsXDhT-Ta-21" style="edgeStyle=orthogonalEdgeStyle;rounded=0;orthogonalLoop=1;jettySize=auto;html=1;entryX=1.003;entryY=0.1;entryDx=0;entryDy=0;entryPerimeter=0;" edge="1" parent="1" source="WqK_vdZ7HnOktPKJ3eLL-10" target="LXnhh3mfrqFDw1orOlzL-3">
          <mxGeometry relative="1" as="geometry" />
        </mxCell>
        <mxCell id="D3KXRA7UlALcsXDhT-Ta-22" value="&lt;div&gt;&lt;span style=&quot;background-color: initial;&quot;&gt;BasicTask&lt;/span&gt;&lt;br&gt;&lt;/div&gt;" style="swimlane;fontStyle=0;childLayout=stackLayout;horizontal=1;startSize=30;horizontalStack=0;resizeParent=1;resizeParentMax=0;resizeLast=0;collapsible=1;marginBottom=0;whiteSpace=wrap;html=1;" vertex="1" parent="1">
          <mxGeometry x="640" y="228" width="210" height="60" as="geometry" />
        </mxCell>
        <mxCell id="ehFr7QhovKkDBZNocTqd-12" value="+ nextDay(): void" style="text;strokeColor=none;fillColor=none;align=left;verticalAlign=middle;spacingLeft=4;spacingRight=4;overflow=hidden;points=[[0,0.5],[1,0.5]];portConstraint=eastwest;rotatable=0;whiteSpace=wrap;html=1;" vertex="1" parent="D3KXRA7UlALcsXDhT-Ta-22">
          <mxGeometry y="30" width="210" height="30" as="geometry" />
        </mxCell>
        <mxCell id="LXnhh3mfrqFDw1orOlzL-13" value="&lt;div&gt;&amp;lt;&amp;lt;interface&amp;gt;&amp;gt;&lt;/div&gt;RepeatableTask" style="swimlane;fontStyle=0;childLayout=stackLayout;horizontal=1;startSize=30;horizontalStack=0;resizeParent=1;resizeParentMax=0;resizeLast=0;collapsible=1;marginBottom=0;whiteSpace=wrap;html=1;" vertex="1" parent="1">
          <mxGeometry x="1200" y="420" width="140" height="60" as="geometry" />
        </mxCell>
        <mxCell id="LXnhh3mfrqFDw1orOlzL-14" value="+ rolloverTask(): void" style="text;strokeColor=none;fillColor=none;align=left;verticalAlign=middle;spacingLeft=4;spacingRight=4;overflow=hidden;points=[[0,0.5],[1,0.5]];portConstraint=eastwest;rotatable=0;whiteSpace=wrap;html=1;" vertex="1" parent="LXnhh3mfrqFDw1orOlzL-13">
          <mxGeometry y="30" width="140" height="30" as="geometry" />
        </mxCell>
        <mxCell id="LXnhh3mfrqFDw1orOlzL-17" value="WeeklyTask" style="swimlane;fontStyle=0;childLayout=stackLayout;horizontal=1;startSize=30;horizontalStack=0;resizeParent=1;resizeParentMax=0;resizeLast=0;collapsible=1;marginBottom=0;whiteSpace=wrap;html=1;" vertex="1" parent="1">
          <mxGeometry x="1040" y="243" width="170" height="90" as="geometry" />
        </mxCell>
        <mxCell id="LXnhh3mfrqFDw1orOlzL-19" value="+ rolloverTask(): void" style="text;strokeColor=none;fillColor=none;align=left;verticalAlign=middle;spacingLeft=4;spacingRight=4;overflow=hidden;points=[[0,0.5],[1,0.5]];portConstraint=eastwest;rotatable=0;whiteSpace=wrap;html=1;" vertex="1" parent="LXnhh3mfrqFDw1orOlzL-17">
          <mxGeometry y="30" width="170" height="30" as="geometry" />
        </mxCell>
        <mxCell id="ehFr7QhovKkDBZNocTqd-13" value="+ nextDay(): void" style="text;strokeColor=none;fillColor=none;align=left;verticalAlign=middle;spacingLeft=4;spacingRight=4;overflow=hidden;points=[[0,0.5],[1,0.5]];portConstraint=eastwest;rotatable=0;whiteSpace=wrap;html=1;" vertex="1" parent="LXnhh3mfrqFDw1orOlzL-17">
          <mxGeometry y="60" width="170" height="30" as="geometry" />
        </mxCell>
        <mxCell id="WqK_vdZ7HnOktPKJ3eLL-16" value="joins" style="text;html=1;align=center;verticalAlign=middle;resizable=0;points=[];autosize=1;strokeColor=none;fillColor=none;" vertex="1" parent="1">
          <mxGeometry x="520" y="348" width="50" height="30" as="geometry" />
        </mxCell>
        <mxCell id="D3KXRA7UlALcsXDhT-Ta-33" style="edgeStyle=orthogonalEdgeStyle;rounded=0;orthogonalLoop=1;jettySize=auto;html=1;entryX=1;entryY=0.133;entryDx=0;entryDy=0;entryPerimeter=0;endArrow=block;endFill=0;" edge="1" parent="1" source="LXnhh3mfrqFDw1orOlzL-17" target="LXnhh3mfrqFDw1orOlzL-7">
          <mxGeometry relative="1" as="geometry" />
        </mxCell>
        <mxCell id="D3KXRA7UlALcsXDhT-Ta-34" value="is a" style="text;html=1;align=center;verticalAlign=middle;resizable=0;points=[];autosize=1;strokeColor=none;fillColor=none;" vertex="1" parent="1">
          <mxGeometry x="1040" y="138" width="40" height="30" as="geometry" />
        </mxCell>
        <mxCell id="LXnhh3mfrqFDw1orOlzL-22" value="" style="endArrow=block;endSize=16;endFill=0;html=1;rounded=0;entryX=-0.002;entryY=0.356;entryDx=0;entryDy=0;exitX=0.5;exitY=0;exitDx=0;exitDy=0;entryPerimeter=0;" edge="1" parent="1" source="D3KXRA7UlALcsXDhT-Ta-22" target="LXnhh3mfrqFDw1orOlzL-7">
          <mxGeometry x="-0.0004" width="160" relative="1" as="geometry">
            <mxPoint x="600" y="220" as="sourcePoint" />
            <mxPoint x="710" y="140" as="targetPoint" />
            <Array as="points">
              <mxPoint x="745" y="170" />
            </Array>
            <mxPoint as="offset" />
          </mxGeometry>
        </mxCell>
        <mxCell id="LXnhh3mfrqFDw1orOlzL-23" value="" style="endArrow=block;dashed=1;endFill=0;endSize=12;html=1;rounded=0;exitX=1;exitY=0.5;exitDx=0;exitDy=0;" edge="1" parent="1">
          <mxGeometry width="160" relative="1" as="geometry">
            <mxPoint x="1210" y="288" as="sourcePoint" />
            <mxPoint x="1260" y="419" as="targetPoint" />
            <Array as="points">
              <mxPoint x="1260" y="288" />
            </Array>
          </mxGeometry>
        </mxCell>
        <mxCell id="LXnhh3mfrqFDw1orOlzL-24" value="" style="endArrow=block;endSize=16;endFill=0;html=1;rounded=0;exitX=0.5;exitY=0;exitDx=0;exitDy=0;" edge="1" parent="1">
          <mxGeometry x="-0.0004" width="160" relative="1" as="geometry">
            <mxPoint x="820" y="720" as="sourcePoint" />
            <mxPoint x="650" y="600" as="targetPoint" />
            <Array as="points">
              <mxPoint x="820" y="600" />
            </Array>
            <mxPoint as="offset" />
          </mxGeometry>
        </mxCell>
        <mxCell id="D3KXRA7UlALcsXDhT-Ta-37" value="is a" style="text;html=1;align=center;verticalAlign=middle;resizable=0;points=[];autosize=1;strokeColor=none;fillColor=none;" vertex="1" parent="1">
          <mxGeometry x="780" y="138" width="40" height="30" as="geometry" />
        </mxCell>
        <mxCell id="D3KXRA7UlALcsXDhT-Ta-38" value="is a" style="text;html=1;align=center;verticalAlign=middle;resizable=0;points=[];autosize=1;strokeColor=none;fillColor=none;" vertex="1" parent="1">
          <mxGeometry x="700" y="570" width="40" height="30" as="geometry" />
        </mxCell>
        <mxCell id="WqK_vdZ7HnOktPKJ3eLL-18" value="1..*" style="text;html=1;align=center;verticalAlign=middle;resizable=0;points=[];autosize=1;strokeColor=none;fillColor=none;" vertex="1" parent="1">
          <mxGeometry x="525" y="460" width="40" height="30" as="geometry" />
        </mxCell>
        <mxCell id="WqK_vdZ7HnOktPKJ3eLL-19" value="0..*" style="text;html=1;align=center;verticalAlign=middle;resizable=0;points=[];autosize=1;strokeColor=none;fillColor=none;" vertex="1" parent="1">
          <mxGeometry x="365" y="248" width="40" height="30" as="geometry" />
        </mxCell>
        <mxCell id="WqK_vdZ7HnOktPKJ3eLL-20" value="1..*" style="text;html=1;align=center;verticalAlign=middle;resizable=0;points=[];autosize=1;strokeColor=none;fillColor=none;" vertex="1" parent="1">
          <mxGeometry x="360" y="50" width="40" height="30" as="geometry" />
        </mxCell>
        <mxCell id="WqK_vdZ7HnOktPKJ3eLL-21" value="0..*" style="text;html=1;align=center;verticalAlign=middle;resizable=0;points=[];autosize=1;strokeColor=none;fillColor=none;" vertex="1" parent="1">
          <mxGeometry x="830" y="50" width="40" height="30" as="geometry" />
        </mxCell>
        <mxCell id="LXnhh3mfrqFDw1orOlzL-27" value="" style="endArrow=none;html=1;rounded=0;exitX=0.001;exitY=-0.01;exitDx=0;exitDy=0;exitPerimeter=0;" edge="1" parent="1">
          <mxGeometry width="50" height="50" relative="1" as="geometry">
            <mxPoint x="870.0000000000002" y="219.5999999999999" as="sourcePoint" />
            <mxPoint x="1010" y="220" as="targetPoint" />
          </mxGeometry>
        </mxCell>
      </root>
    </mxGraphModel>
  </diagram>
</mxfile>
